<svg height="512pt" viewBox="0 -31 512 512" width="512pt" xmlns="http://www.w3.org/2000/svg"><path d="m200.914062.109375s-134.796874-9.003906-134.796874 135.074219c0 95.9375-24.6875 129.507812-41.179688 141.238281-6.011719 4.273437-5.226562 13.417969 1.105469 17.214844 18.191406 10.929687 51.011719 25.414062 91.496093 20.296875 2.621094-.335938 3.910157 3.089844 1.6875 4.527344l-94.21875 54.464843c-15.472656 8.941407-25.007812 25.46875-25.007812 43.34375v11.300781c0 12.5 10.132812 22.632813 22.632812 22.632813h134.101563l143.402344-61.792969-33.992188-375.691406c-32.953125-14.691406-65.230469-12.609375-65.230469-12.609375zm0 0" fill="#556080"/><path d="m476.328125 146.136719c-4.433594-3.34375-7.363281-8.253907-7.414063-13.796875-.273437-31.398438-10.460937-132.230469-129.835937-132.230469-1.617187 0-3.136719.089844-4.714844.125-1.570312-.035156-3.097656-.125-4.714843-.125-119.3125 0-129.554688 100.734375-129.835938 132.175781-.042969 5.457032-2.773438 10.410156-7.160156 13.65625-12.667969 9.402344-19.207032 25.285156-13.230469 39.882813 9.039063 22.105469 27.433594 40.820312 36.429687 49.101562 3.363282 3.089844 5.164063 7.449219 5.332032 12.011719 1.878906 50.882812 22.953125 69.226562 36.265625 75.847656 7.933593 3.945313 13.273437 11.210938 13.273437 19.546875 0 10.484375-11.15625 18.449219-19.964844 24.113281l-54.820312 12.210938c-22.917969 5.101562-39.222656 25.441406-39.222656 48.921875v22.625h258.183594l31.460937-188.890625c.554687-4.503906.988281-9.226562 1.171875-14.363281.167969-4.574219 1.96875-8.925781 5.332031-12.015625 9.058594-8.332032 27.621094-27.222656 36.601563-49.515625 5.824218-14.457031-.714844-29.921875-13.136719-39.28125zm0 0" fill="#7383bf"/><path d="m512 353.101562c0 53.628907-43.476562 97.101563-97.101562 97.101563-53.628907 0-97.105469-43.472656-97.105469-97.101563 0-53.628906 43.476562-97.105468 97.105469-97.105468 53.625 0 97.101562 43.476562 97.101562 97.105468zm0 0" fill="#23a24d"/><g fill="#fff"><path d="m414.898438 414.894531c-4.875 0-8.828126-3.949219-8.828126-8.828125v-105.933594c0-4.878906 3.953126-8.824218 8.828126-8.824218 4.871093 0 8.824218 3.945312 8.824218 8.824218v105.933594c0 4.878906-3.953125 8.828125-8.824218 8.828125zm0 0"/><path d="m467.863281 361.925781h-105.933593c-4.871094 0-8.828126-3.945312-8.828126-8.824219 0-4.882812 3.957032-8.828124 8.828126-8.828124h105.933593c4.871094 0 8.828125 3.945312 8.828125 8.828124 0 4.878907-3.957031 8.824219-8.828125 8.824219zm0 0"/></g></svg>